<?xml version="1.0" standalone="no"?>
<!DOCTYPE svg PUBLIC "-//W3C//DTD SVG 20010904//EN"
 "http://www.w3.org/TR/2001/REC-SVG-20010904/DTD/svg10.dtd">
<svg version="1.0" xmlns="http://www.w3.org/2000/svg"
 width="1024.000000pt" height="1024.000000pt" viewBox="0 0 1024.000000 1024.000000"
 preserveAspectRatio="xMidYMid meet">

<g transform="translate(0.000000,1024.000000) scale(0.100000,-0.100000)"
fill="#000000" stroke="none">
<path d="M0 5120 l0 -5120 5120 0 5120 0 0 5120 0 5120 -5120 0 -5120 0 0
-5120z m5475 2116 c62 -28 116 -80 1366 -1326 318 -316 330 -333 337 -475 5
-96 -12 -169 -56 -234 -16 -24 -372 -386 -792 -806 -719 -719 -767 -765 -831
-795 -87 -40 -171 -48 -259 -25 -119 30 -193 94 -247 212 -23 49 -28 72 -28
144 0 78 3 91 37 160 34 69 59 96 374 404 185 182 393 385 463 452 l126 122
-1130 -2 -1130 -2 -40 -22 c-50 -27 -80 -58 -100 -105 -13 -32 -15 -106 -15
-511 0 -392 -3 -483 -15 -532 -32 -122 -93 -198 -205 -253 -48 -24 -67 -27
-150 -27 -84 0 -102 3 -153 29 -80 39 -130 90 -169 172 l-33 69 0 580 c0 537
1 585 19 650 40 149 107 264 225 388 125 131 239 205 396 258 l70 24 1174 3
1174 2 -420 423 c-231 232 -434 444 -453 471 -38 56 -70 150 -70 204 1 155
103 304 247 359 83 33 204 28 288 -11z"/>
<path d="M6790 5060 c63 -3 126 -12 139 -19 13 -7 20 -8 17 -2 -12 19 -81 31
-176 29 l-95 -1 115 -7z"/>
<path d="M5814 4907 c-6 -7 -123 -121 -260 -254 -418 -406 -505 -497 -536
-556 -73 -140 -44 -324 68 -427 53 -49 106 -74 191 -90 82 -16 187 6 261 54
28 19 300 284 604 590 729 731 688 690 656 675 -16 -7 -28 -15 -28 -19 0 -4
-16 -7 -35 -8 -19 -1 -44 -6 -54 -11 -10 -6 -37 -8 -60 -6 -26 3 -39 1 -36 -6
4 -6 -3 -7 -21 -3 -18 5 -25 3 -20 -4 4 -7 -3 -9 -21 -6 -15 3 -29 7 -32 9 -2
2 -13 0 -24 -6 -15 -9 -18 -8 -12 2 6 9 3 10 -11 5 -10 -5 -23 -8 -29 -8 -5 1
-28 3 -50 5 -22 2 -44 1 -49 -2 -17 -8 -57 -7 -63 3 -4 5 -1 6 7 1 8 -5 11 -4
6 3 -4 7 -15 6 -34 -4 -31 -16 -46 -18 -38 -5 4 5 -29 8 -75 7 -44 -1 -82 2
-85 5 -2 4 -18 6 -36 6 -18 0 -44 5 -58 10 -14 6 -31 8 -37 6 -7 -3 -13 2 -13
11 0 9 -5 16 -11 16 -5 0 -8 -4 -4 -9 3 -5 0 -13 -6 -17 -7 -4 -9 -3 -5 4 3 6
2 13 -4 17 -6 3 -13 -1 -16 -9 -6 -16 -24 -12 -24 5 0 6 4 8 8 5 5 -3 9 1 9 9
0 18 -8 19 -23 2z"/>
</g>
</svg>
